<svg version="1.1" id="Layer_1" xmlns="http://www.w3.org/2000/svg" xmlns:xlink="http://www.w3.org/1999/xlink" x="0" y="0" viewBox="0 0 694 474" style="enable-background:new 0 0 694 474" xml:space="preserve"><style>.st3,.st5{clip-path:url(#SVGID_2_);fill:#fffdfd}.st5{fill:#fc3}.st10,.st6,.st7,.st8,.st9{clip-path:url(#SVGID_2_);fill:#fdc603}.st10,.st7,.st8,.st9{fill:#fcd9d1}.st10,.st8,.st9{fill:#00376f}.st10,.st9{fill:#fbc8bc}.st10{fill:#f87659}</style><defs><path id="SVGID_1_" d="M0 0h694v474H0z"/></defs><clipPath id="SVGID_2_"><use xlink:href="#SVGID_1_" style="overflow:visible"/></clipPath><linearGradient id="SVGID_3_" gradientUnits="userSpaceOnUse" x1="351.168" y1="463.621" x2="345.877" y2="38.383" gradientTransform="matrix(1 0 0 -1 0 476)"><stop offset="0" style="stop-color:#fdeae6"/><stop offset=".99" style="stop-color:#fffcfc"/></linearGradient><path d="M57.3 468.8c-97.7-79-44.7-155.6-26.9-206C52.2 201-27.5 108.8 57.3 67c99.5-49 216.6-71.6 378.5 7s241.6 110.2 256.4 225.8c14.8 115.6-67.5 168.9-67.5 168.9H57.3z" style="clip-path:url(#SVGID_2_);fill:url(#SVGID_3_)"/><path d="M35.8 474h629.6c3 0 5.4-2.4 5.4-5.4v-1.4c0-3-2.4-5.4-5.4-5.4H35.8c-3 0-5.4 2.4-5.4 5.4v1.4c0 3 2.4 5.4 5.4 5.4z" style="clip-path:url(#SVGID_2_);fill:#fee3dd"/><path d="M487.1 0H110.3C94.2 0 81.2 12 81.2 26.8v239.8c0 14.8 13.1 26.8 29.1 26.8h39.1l-5.3 71.6 70.2-71.6h272.8c16.1 0 29.1-12 29.1-26.8V26.8c0-14.8-13-26.8-29.1-26.8z" style="clip-path:url(#SVGID_2_);fill:#fcd2c9"/><path class="st3" d="M207.2 168.2h-62.7c-4.1 0-7.5-3.3-7.5-7.5s3.3-7.5 7.5-7.5h62.7c4.1 0 7.5 3.3 7.5 7.5s-3.4 7.5-7.5 7.5zM458.6 168.2H251.5c-4.1 0-7.5-3.3-7.5-7.5s3.3-7.5 7.5-7.5h207.1c4.1 0 7.5 3.3 7.5 7.5.1 4.2-3.3 7.5-7.5 7.5zM299.5 207.7h-155c-4.1 0-7.5-3.3-7.5-7.5 0-4.1 3.3-7.5 7.5-7.5h155c4.1 0 7.5 3.3 7.5 7.5s-3.4 7.5-7.5 7.5zM458.6 128.8H144.4c-4.1 0-7.5-3.3-7.5-7.5s3.3-7.5 7.5-7.5h314.2c4.1 0 7.5 3.3 7.5 7.5.1 4.1-3.3 7.5-7.5 7.5zM458.6 207.7H339.4c-4.1 0-7.5-3.3-7.5-7.5 0-4.1 3.3-7.5 7.5-7.5h119.2c4.1 0 7.5 3.3 7.5 7.5.1 4.2-3.3 7.5-7.5 7.5zM458.6 247.2H144.4c-4.1 0-7.5-3.3-7.5-7.5s3.3-7.5 7.5-7.5h314.2c4.1 0 7.5 3.3 7.5 7.5.1 4.1-3.3 7.5-7.5 7.5z"/><path d="m437.9 31.6 8.7 17.6 19.6 2.8L452 65.8l3.3 19.4-17.4-9.2-17.5 9.1 3.3-19.4L409.6 52l19.5-2.8 8.8-17.6z" style="clip-path:url(#SVGID_2_);fill:#f9b2a2"/><path class="st5" d="m165.2 31.6 8.7 17.6 19.6 2.8-14.2 13.7 3.3 19.4-17.4-9.1-17.5 9.1 3.3-19.4L136.9 52l19.5-2.8 8.8-17.6z"/><path class="st6" d="M177.1 58.3c-11.6 0-21.7 6.1-27.4 15.3l-2 11.5 17.5-9.1 17.5 9.1-3.3-19.4 6.5-6.3c-2.9-.6-5.8-1.1-8.8-1.1z"/><path class="st5" d="m233.4 31.6 8.7 17.6 19.6 2.8-14.2 13.7 3.3 19.4-17.4-9.1-17.5 9.1 3.3-19.4L205 52l19.6-2.8 8.8-17.6z"/><path class="st6" d="M245.3 58.3c-11.6 0-21.7 6.1-27.4 15.3l-2 11.5 17.5-9.1 17.5 9.1-3.3-19.4 6.5-6.3c-2.9-.6-5.8-1.1-8.8-1.1z"/><path class="st5" d="m301.5 31.6 8.8 17.6 19.5 2.8-14.1 13.7 3.3 19.4-17.5-9.1-17.5 9.1 3.3-19.4L273.1 52l19.6-2.8 8.8-17.6zM369.8 31.6l8.8 17.6 19.5 2.8L384 65.7l3.3 19.4-17.5-9.1-17.5 9.1 3.3-19.4L341.4 52l19.6-2.8 8.8-17.6z"/><path class="st6" d="M313.4 58.3c-11.6 0-21.7 6.1-27.4 15.3l-2 11.5 17.5-9.1 17.5 9.1-3.3-19.4 6.5-6.3c-2.8-.6-5.8-1.1-8.8-1.1zM382 58.3c-11.6 0-21.7 6.1-27.4 15.3l-2 11.5 17.5-9.1 17.5 9.1-3.3-19.4 6.5-6.3c-2.8-.6-5.8-1.1-8.8-1.1z"/><path class="st7" d="M611.9 442s2.7 2.7 2.8 3.7c.1 1 .2 11.6-.9 12.5-1.1 1-4.4 1.7-3.3 2.8.8.8 6.9.6 11 .4 1.2-.1 2.7-9.6 3.1-11 .7-2 3.1-6.4 2.5-7.9-.3-.7-2.5-2.3-4.6-3.6-2.1-1.4-4.2-4.5-4.2-4.5l-6.4 7.6zM575.5 448.6l2.4 7c.2 1.1.9 3.8.9 4.8 0 3.8-16.8-3.2-13.1-4.8.3-.2 1.4-1.4 1.5-2.7.2-2-1.4-4.4-1.4-4.4l9.7.1z"/><path class="st8" d="M547.4 317.1s-1.3 11.5-1.3 11.7c0 20.2-2.4 59.5-1.6 63.3 1.8 9.2 21.9 59.6 21.9 59.6l10.4-1.5-13.9-59.4 5.1-22.7 7.2-45-27.8-6z"/><path class="st8" d="m586.6 327.1 2 11.8 5.5 48.6 26.9 49.4s-4 6.2-8.4 7.2l-38.1-49.9-20.7-62.4.7-13.9 32.1 9.2z"/><path class="st7" d="M543.5 191.8c-.3.6-1.7 2.3-1.7 2.3s3 32.3 3.3 34.4l9.2 13.9L544 250s-10.5-16.8-10.7-17.6c-.1-.8.3-25 .3-25s.8-12.6.8-13.2c0-.6-1.9-4.7-2.2-6.3-.3-1.5-.4-6.2-.4-6.2l.8-1.1 3.6-.8 2.5.3s5.9 2.3 6.1 3.1c.1.3-.2 4.8-.5 6.4-.2.5-.6 1.6-.8 2.2z"/><path class="st9" d="M542.3 185.7s-.6 1.4-1.5 2.4c-.9 1.1-2.7.8-3.7-.6s-1.4-2.7-1.4-2.7l6.6.9z"/><path class="st5" d="m557.1 110.5-1.8 28.9 22.9 17.8-28.2 7.3-10 27.2-15.6-24.4-29.1-1 18.5-22.4-8-27.8 27.1 10.6 24.2-16.2z"/><path class="st6" d="M552.7 153.4c-14.8-8.4-32.3-7.9-46.3-.3l-11 13.3 29.1 1 15.7 24.4 9.9-27.2 12.9-3.3c-3-3-6.5-5.7-10.3-7.9z"/><path class="st7" d="M542.4 185.8c0-.7.1-2.2.1-2.2s-1.5-2.9-1.2-3.1c1.2-.7 3.5 2.6 3.5 2.6s-2.3 5-2.4 2.7zM532.3 187.7s-1.6-6.1-.9-7.8c.5-1.1 6.5-3.5 7.3-2.4.7 1-5.1 3-4.9 3.2.3.4 4.4-2.4 5.1-1.9.8.6-4 3.5-3.7 3.9.2.3 2.8-2.5 3.1-1.2.2 1.3-6 6.2-6 6.2z"/><path class="st10" d="m547.2 310.1 2.1-28.8c.7-7.1 1-12.8.4-14.8-1.2-4.4-10.2-19-10.2-19s8.6-9.5 14.7-9.5c0 0 6.8 13 14.8 14.1 8 1.1 6.3 1.2 9.6 1.6 3.8.4 7.5 1 10.4 2.2 6.1 2.5 1.5 25.4.8 29.1-1.1 5.6.9 53 .9 53s-17.6 3.9-44.6-9.2l1.1-18.7z"/><path class="st7" d="m576.9 241.1 1.9 12.8s-7 14.9-11.3 13.6c-3.5-1.1-1.3-14.8-1.3-14.8s1.9-6.9 1.3-10.4c-.6-3.6 9.4-1.2 9.4-1.2z"/><path class="st9" d="M575.6 244.9c-1.8.9-5.4 2.2-8.2 2.5.3-1.8.4-3.7.2-5.1-.3-1.7 1.7-2 3.9-2 2.9.3 5.5.8 5.5.8l.4 2.5c-.7.5-1.2 1-1.8 1.3z"/><path class="st7" d="M586.1 226.3c.3 0-2.9 14.3-7.8 16.8s-12.2 1.2-13.6-2.7c-1.5-4.3 4-18.9 10.9-20.7 6.9-1.9 10.5 6.6 10.5 6.6z"/><path d="M606 279.5s6.3 8.5 6.7 10c.4 1.5-2.4 36.7-2.5 39.8 0 0 1.1 3.8 1.8 6.1.6 2.4 1 4.2.6 4.6-.3.5-1.3.2-1.8 1.1-.4.9-1.6.8-1.9.9-.4.2-1.4 1.5-1.8 1.5-.4 0-1.1-.1-1.4.1-.3.2-.9.8-1.8.7-.8-.2-1.2-.6-1.2-.6s.6-6.5.2-6.4c-.5 0-1.7.6-1.8.9-.2.4-.1 1.3-.3 1.7-.2.4-.7.8-1.2.6-.5-.2-.4-2.4-.4-2.4s.1-1.8.7-2.9c2.2-3.7 2.7-3.2 3-3.6.2-.2 0-9.4 0-9.4s-.9-25.9-1-27.3l-6.6-9.8 10.7-5.6z" style="clip-path:url(#SVGID_2_);fill:#fcdad2"/><path class="st10" d="m608.7 279.6-13.2 9.9s-7.2-10.9-11.1-14.7c-4.9-4.8 2-20.2 4.9-18.9 7.1 3.4 19.4 23.7 19.4 23.7z"/><path class="st8" d="M580.4 213.2c3.9 2.4 5.7 5.9 6.3 7.4 1.8.9 4.1 2.9 5.1 8.3 1.3 6.6-3.3 11.8-8.3 13.3-4.9 1.6-5.8 5-5.8 5l-.5-3.8s1.1-3.3 2.7-4.9c1.7-1.6-.8-4-1-5.9-.2-1.5.9-4.4.6-6.9l-.6-2s-2-3.1-4.9-3.5c-2.7-.3 1.4-10.2 6.4-7z"/><path class="st7" d="M578.3 235.1c-.6 1.7-.4 3.3.6 3.7 1 .4 2.3-.7 2.9-2.3.6-1.7.4-3.3-.6-3.7-.9-.4-2.3.7-2.9 2.3z"/><path class="st8" d="M622.4 438.9s-6.3 17.8-8.8 18.7c-.6.2-3.8.8-4.4 2.2-.2.4 0 1.8 0 1.8h13.1s1.7-7.9 2.3-11.3c0 0 3.5-8.4 3.1-9.2-.3-.7-5.3-2.2-5.3-2.2zM579.8 461.6l-1.9-6.1s-4 1.7-6 1.4c-2-.3-6-1.4-6-1.4-8.1 2.7-14.7 4-13.5 6.1h27.4z"/></svg>